<svg width="227" height="31" viewBox="0 0 227 31" fill="none" xmlns="http://www.w3.org/2000/svg">
<path d="M107.261 30.531C103.656 30.531 100.7 29.6455 98.7074 27.9696C96.9682 26.4992 96.0195 24.4121 96.0195 22.1037C96.0195 19.1154 97.3318 16.3327 99.7983 14.0401C102.012 12.0005 105.063 10.4985 108.21 9.91347L108.668 9.83441L108.447 9.43914C108.099 8.82251 107.862 8.15846 107.751 7.4944L107.72 7.27305L107.514 7.2256C106.423 6.95682 105.19 6.67222 104.036 6.67222C103.451 6.67222 102.929 6.75128 102.455 6.90939C100.684 7.4944 99.7509 8.86995 99.7193 11.0044L99.4347 11.1467C98.5493 10.5301 98.1066 9.6605 98.1066 8.55373C98.1066 7.52602 98.5493 6.48249 99.324 5.70775C100.273 4.7591 101.506 4.28478 103.055 4.28478C104.605 4.28478 106.218 4.74329 107.467 5.13856L107.799 5.24924L107.894 4.91721C108.842 1.53366 112.147 0 114.819 0C116.748 0 118.993 0.8538 118.993 3.25706C118.993 5.66033 116.431 8.01615 112.305 8.01615C111.767 8.01615 111.23 7.96873 110.66 7.88967L110.044 7.7948L110.328 8.36399C110.803 9.34427 111.356 9.89766 112.052 10.5775L112.321 10.8305L111.957 10.8937C107.941 11.5104 104.795 12.8701 102.597 14.9255C100.621 16.7912 99.5296 19.1629 99.5296 21.6452C99.5296 25.6454 103.071 28.9024 107.419 28.9024C111.767 28.9024 114.234 27.3688 115.641 26.0723C117.317 24.5386 118.313 22.4516 118.313 20.4752C118.313 17.9296 116.779 16.2853 114.408 16.2853C112.431 16.2853 111.182 17.06 110.487 17.7241C109.649 18.5146 109.143 19.5898 109.143 20.5859C109.143 21.8982 110.028 22.7836 111.34 22.7836C111.878 22.7836 112.431 22.6255 112.921 22.3251L113.206 22.499C113.19 22.752 113.095 23.0208 112.937 23.2579C112.4 24.1275 111.198 24.6809 109.902 24.6809C107.925 24.6809 106.376 23.7006 105.87 22.1353C105.285 20.3329 106.186 18.23 108.162 16.7754C109.759 15.6054 111.83 14.8149 113.838 14.0559C115.103 13.5816 116.289 13.1231 117.349 12.5855C119.941 11.2732 121.807 9.18617 122.598 6.70385C123.025 5.35992 123.104 3.9053 122.819 2.59299L123.135 2.43489C123.878 3.39936 124.29 4.71167 124.274 6.13466C124.258 9.48658 122.029 12.5381 118.345 14.2773L117.728 14.5619L118.345 14.8623C120.479 15.9216 121.791 18.0877 121.791 20.491C121.791 24.1591 119.293 26.4833 117.19 27.7957C114.487 29.5032 110.882 30.4677 107.309 30.4677M110.044 5.96074C111.024 6.32439 111.957 6.4983 112.779 6.4983C115.388 6.4983 116.574 4.72748 116.574 3.47842C116.574 2.38746 115.641 1.66015 114.25 1.66015C112.321 1.66015 110.186 3.00408 109.822 5.59708L109.791 5.86587L110.044 5.96074Z" fill="#CF9C51"/>
<path d="M67.244 12.5064C66.9119 12.9491 66.7696 13.5815 66.7696 14.5144V21.6451C66.7696 22.0404 66.8329 22.578 66.9119 22.91C67.0068 23.3685 67.1807 23.5583 67.6709 24.001C67.7183 24.0642 67.7974 24.1116 67.8922 24.1907V24.665H62.3742V24.1907C62.7537 23.9535 62.896 23.827 63.0699 23.5899C63.4019 23.1788 63.56 22.5305 63.56 21.6293V18.8308H56.6981V21.6293C56.6981 22.0088 56.7613 22.578 56.8404 22.8942C56.9669 23.4318 57.2356 23.7638 57.8681 24.1907V24.665H52.271V24.1907C52.6663 23.9535 52.8086 23.827 52.9825 23.5899C53.3145 23.1788 53.4726 22.5305 53.4726 21.6293V14.4828C53.4726 14.0875 53.4094 13.5025 53.3303 13.1863C53.188 12.6487 52.8876 12.2851 52.2552 11.8898V11.4154H57.8523V11.8898C57.4728 12.1744 57.3147 12.3009 57.1566 12.538C56.8404 12.9491 56.6823 13.6764 56.6823 14.4828V16.3643H63.5442V14.4828C63.5442 14.0717 63.481 13.4867 63.4019 13.1863C63.2438 12.5855 62.9118 12.1902 62.2951 11.874V11.3996H67.9397V11.874C67.5602 12.1111 67.4021 12.2376 67.2282 12.4748M82.7071 13.8345C84.0668 13.8345 85.8851 14.0559 87.2764 14.8306H87.6243C87.6243 14.8306 86.9286 12.7752 86.9286 11.9214V11.4471H73.9952V11.9214C73.9952 12.9175 73.3154 14.799 73.3154 14.799H73.679C74.849 14.1507 76.4301 13.8187 78.28 13.8187C78.4381 13.8187 78.5646 13.8187 78.8334 13.8345V21.1234C78.8334 22.072 78.7702 22.4515 78.5804 22.9258C78.3591 23.4001 78.1377 23.6847 77.5369 24.1907V24.665H83.4186V24.1907C82.8652 23.7164 82.8178 23.6689 82.628 23.4634C82.4857 23.2895 82.375 23.0997 82.296 22.91C82.1379 22.5147 82.0588 21.9613 82.0588 21.1234V13.8345H82.7071ZM156.655 24.9654C151.833 24.9654 148.876 22.3882 148.876 18.1983C148.876 14.0084 151.991 11.1625 156.813 11.1625C161.635 11.1625 164.545 13.7397 164.545 17.9296C164.545 22.1195 161.367 24.9654 156.655 24.9654ZM156.797 13.5025C154.062 13.5025 152.37 15.3049 152.37 18.2616C152.37 19.5265 152.702 20.5384 153.382 21.3289C154.109 22.2301 155.09 22.5938 156.623 22.5938C159.438 22.5938 161.066 20.8546 161.066 17.8347C161.066 15.131 159.438 13.4867 156.797 13.4867M183.818 14.4986V19.3842C183.818 23.0365 181.541 24.9812 177.241 24.9812C175.612 24.9812 174.221 24.6808 173.114 24.1275C172.434 23.7638 171.865 23.2579 171.47 22.6254C170.948 21.7874 170.758 20.8862 170.758 19.2419V14.5144C170.758 14.1033 170.695 13.5341 170.616 13.2179C170.474 12.6803 170.205 12.3167 169.572 11.9214V11.4471H175.264V11.9214C174.332 12.3641 174.015 13.0282 174 14.4986L173.952 19.1944C173.952 20.4277 174.094 21.1234 174.426 21.6293C174.822 22.2301 175.897 22.5938 177.241 22.5938C178.079 22.5938 178.853 22.4515 179.454 22.1353C180.324 21.6926 180.608 21.0285 180.608 19.3525V14.467C180.608 14.0243 180.545 13.5183 180.466 13.1705C180.324 12.6487 180.071 12.3167 179.423 11.874V11.3996H185.115V11.874C184.182 12.2534 183.818 12.9649 183.818 14.4511M205.274 12.5064C204.942 12.9491 204.799 13.5657 204.799 14.4986V23.4476C204.799 23.9061 204.831 24.001 205.1 24.2065V24.6808H199.819V24.2065C199.961 24.0484 200.009 23.9693 200.009 23.8745C200.009 23.8112 199.961 23.7638 199.929 23.6531L199.803 23.4476L194.285 13.961L194.317 15.1468L194.364 16.3801V21.6451C194.364 22.0404 194.427 22.578 194.506 22.91C194.633 23.4318 194.838 23.7164 195.518 24.2065V24.6808H190.269V24.2065C190.664 23.9852 190.791 23.8745 190.98 23.6057C191.297 23.1946 191.471 22.5464 191.471 21.6451V14.4986C191.471 14.0875 191.407 13.5183 191.328 13.2021C191.186 12.6487 190.87 12.2851 190.253 11.9056V11.4313H196.815V11.9056C196.688 12.0005 196.641 12.0795 196.641 12.206C196.641 12.2692 196.688 12.3483 196.72 12.459L196.815 12.6803L202.159 21.9139C202.096 21.2815 202.08 20.8072 202.032 20.4909C201.969 19.8111 201.937 19.3209 201.937 19.0205V14.4986C201.937 14.0875 201.874 13.5183 201.795 13.2021C201.637 12.6329 201.305 12.2376 200.688 11.9056V11.4313H206.017V11.9056C205.606 12.1269 205.447 12.2376 205.242 12.5064M10.2139 16.9335C9.29684 16.6489 8.31656 16.4591 6.95682 16.2536C6.2137 16.1587 5.69194 16.0797 5.3441 16.0164C4.90139 15.9532 4.55355 15.7951 4.28477 15.6053C4.09503 15.4472 3.96855 15.1943 3.96855 14.9097C3.96855 14.0401 5.0595 13.5025 6.87776 13.5025C8.0952 13.5025 9.6763 13.8029 10.9412 14.2614C11.3523 14.4195 11.5104 14.5302 11.6369 14.7674L12.0954 14.878L12.9017 11.4945L12.4432 11.3838C12.1902 11.5419 12.0163 11.5736 11.8424 11.5736C11.7159 11.5736 11.5736 11.5577 11.3523 11.5261C11.2258 11.5103 10.9412 11.4787 10.4827 11.4313L8.91738 11.2573C8.28494 11.1783 7.68412 11.1625 7.11493 11.1625C3.08314 11.1625 0.632437 12.7278 0.632437 15.2891C0.632437 17.4552 2.26096 18.6727 5.85005 19.0996L7.3679 19.2735C8.93319 19.4474 9.61306 19.9534 9.61306 20.8862C9.61306 22.0404 8.58534 22.6096 6.4983 22.6096C5.50221 22.6096 4.6168 22.5147 3.63652 22.2934C2.62462 22.0562 2.07123 21.8349 0.996089 21.2973C0.885412 21.234 0.69568 21.1392 0.458516 21.0285L0 21.1234L0.869601 24.9812L1.32812 24.8706C1.62853 24.7125 1.83407 24.6176 2.05542 24.6176C2.49813 24.6176 3.39935 24.7915 4.0476 24.8548C5.12275 24.9338 5.99235 24.9812 6.67222 24.9812C10.4985 24.9812 13.0915 23.1788 13.0915 20.5384C13.0915 18.7675 12.0796 17.5501 10.1823 16.9493M141.176 16.9335C140.259 16.6489 139.279 16.4591 137.919 16.2536C137.192 16.1587 136.654 16.0797 136.306 16.0164C135.864 15.9532 135.516 15.7951 135.263 15.6053C135.073 15.4472 134.946 15.1943 134.946 14.9097C134.946 14.0401 136.037 13.5025 137.856 13.5025C139.073 13.5025 140.654 13.8029 141.919 14.2614C142.33 14.4195 142.488 14.5302 142.615 14.7674L143.073 14.878L143.88 11.4945L143.421 11.3838C143.168 11.5419 142.994 11.5736 142.836 11.5736C142.71 11.5736 142.552 11.5577 142.346 11.5261C142.22 11.5103 141.935 11.4787 141.476 11.4313L139.911 11.2573C139.279 11.1783 138.678 11.1625 138.109 11.1625C134.077 11.1625 131.626 12.7278 131.626 15.2891C131.626 17.4552 133.255 18.6727 136.844 19.0996L138.377 19.2735C139.943 19.4474 140.623 19.9534 140.623 20.8862C140.623 22.0404 139.595 22.6096 137.508 22.6096C136.512 22.6096 135.626 22.5147 134.646 22.2934C133.634 22.0562 133.081 21.8349 132.006 21.2973C131.895 21.234 131.705 21.1392 131.468 21.0285L131.01 21.1234L131.879 24.9812L132.338 24.8706C132.638 24.7125 132.844 24.6176 133.065 24.6176C133.508 24.6176 134.409 24.7915 135.057 24.8548C136.132 24.9338 137.002 24.9812 137.682 24.9812C141.508 24.9812 144.101 23.1788 144.101 20.5384C144.101 18.7675 143.089 17.5501 141.192 16.9493M24.1749 12.4748C24.3647 12.1902 24.5228 12.0795 24.9497 11.874V11.3996H19.2419V11.874C19.8744 12.1902 20.1906 12.5855 20.3487 13.1546C20.4277 13.4709 20.491 14.0242 20.491 14.4511V21.6293C20.491 22.5464 20.3329 23.163 20.0009 23.5899C19.7953 23.8587 19.6688 23.9852 19.2419 24.1907V24.665H24.9497V24.1907C24.3172 23.8903 23.9852 23.495 23.8429 22.8942C23.7639 22.5938 23.7006 22.0246 23.7006 21.6293V14.4511C23.7006 13.5183 23.8429 12.9017 24.1749 12.4748ZM39.5432 16.8228C38.8159 16.8228 38.6736 16.9177 38.4522 17.6608L37.8988 19.4948H38.3257C38.4522 19.3684 38.8791 19.068 39.3693 19.068H42.6738V19.8269C42.6738 20.9811 42.4524 21.5503 41.8358 21.9613C41.1559 22.4199 40.3179 22.6096 39.053 22.6096C36.0648 22.6096 34.5944 21.1866 34.5944 18.2932C34.5944 15.3998 36.381 13.5183 39.5116 13.5183C41.3931 13.5183 43.3852 14.0717 44.2865 14.8622L44.745 15.0045L45.7253 11.6684L45.2668 11.5261C44.8715 11.6052 44.6976 11.621 44.413 11.621C44.1916 11.621 43.8438 11.5736 43.4643 11.5419L41.7567 11.3206C40.8397 11.2099 40.0333 11.1625 39.3535 11.1625C37.0925 11.1625 35.1161 11.7159 33.7564 12.7119C32.0962 13.961 31.0843 16.0164 31.0843 18.309C31.0843 22.3882 34.0726 24.9812 38.8317 24.9812C39.7487 24.9812 40.4918 24.9022 41.6619 24.6808C42.1994 24.586 42.6738 24.4595 43.0848 24.3646C44.1442 24.08 44.3339 24.0642 44.6659 24.0642C44.8557 24.0642 45.2193 24.1591 45.2193 24.3962V24.4595H45.6936V17.8505C45.6936 17.5975 45.7727 17.2971 46.0099 17.2971H46.2154V16.8228H39.4799H39.5432ZM222.634 12.0005C221.559 11.6368 220.152 11.4471 218.586 11.4471H211.361V11.9214H211.693C211.993 11.9214 212.404 12.4115 212.483 12.7436C212.562 13.044 212.626 13.6132 212.626 14.0084V22.1353C212.626 23.0523 212.246 24.2065 211.693 24.2065H211.361V24.6808H218.128C223.583 24.6808 226.65 22.2618 226.65 17.9454C226.65 15.1152 225.101 12.8068 222.618 12.0163M221.796 21.5345C220.99 22.1511 219.867 22.4199 218.128 22.4199H215.835V13.6922H218.492C221.638 13.6922 223.172 15.1152 223.172 18.0561C223.172 19.5897 222.681 20.8704 221.812 21.5186" fill="#E9E6D5"/>
</svg>
